<?xml version="1.0" standalone="no"?>
<!DOCTYPE svg PUBLIC "-//W3C//DTD SVG 20010904//EN"
 "http://www.w3.org/TR/2001/REC-SVG-20010904/DTD/svg10.dtd">
<svg version="1.0" xmlns="http://www.w3.org/2000/svg"
 width="325.000000pt" height="325.000000pt" viewBox="0 0 325.000000 325.000000"
 preserveAspectRatio="xMidYMid meet">
<metadata>
Created by potrace 1.11, written by Peter Selinger 2001-2013
</metadata>
<g transform="translate(0.000000,325.000000) scale(0.100000,-0.100000)"
fill="#000000" stroke="none">
<path d="M1055 2628 l0 -623 158 -1 c86 0 159 -3 161 -5 4 -4 -203 -523 -218
-547 -6 -10 -38 31 -105 135 -53 81 -128 195 -167 253 -38 58 -70 108 -72 112
-5 10 -308 471 -324 491 -12 16 -26 9 -173 -88 -88 -57 -163 -105 -167 -105
-22 0 -18 -7 247 -410 199 -303 375 -572 478 -728 l94 -143 -124 -312 c-69
-172 -131 -325 -138 -342 -59 -141 -117 -297 -112 -302 11 -11 439 -9 452 2 6
6 33 66 59 135 27 69 61 157 77 195 l29 71 395 0 395 0 19 -51 c82 -217 134
-342 145 -350 10 -8 378 -12 450 -6 12 1 16 -9 -177 469 l-174 433 37 57 c20
31 99 152 175 267 76 116 163 248 193 295 31 47 137 209 237 360 99 151 184
280 188 287 7 11 -82 83 -102 83 -5 0 -11 3 -13 8 -4 8 -208 142 -217 142 -3
0 -60 -82 -126 -183 -65 -100 -163 -249 -217 -331 -54 -81 -98 -152 -98 -157
0 -5 -4 -9 -10 -9 -5 0 -10 -5 -10 -10 0 -6 -5 -16 -11 -23 -6 -7 -56 -81
-111 -166 l-101 -154 -123 308 c-68 170 -121 311 -119 314 3 3 83 5 178 5
l172 1 0 623 1 622 -566 0 -565 0 0 -622z m595 -1313 c23 -60 46 -119 50 -130
5 -11 32 -81 60 -155 29 -74 56 -147 62 -162 5 -15 11 -31 12 -35 0 -4 -104
-8 -231 -8 -229 -1 -233 0 -227 20 4 11 53 139 109 285 56 146 105 274 109
284 3 10 8 17 10 15 2 -2 23 -53 46 -114z"/>
</g>
</svg>
